<?xml version="1.0" standalone="no"?><!DOCTYPE svg PUBLIC "-//W3C//DTD SVG 1.1//EN" "http://www.w3.org/Graphics/SVG/1.1/DTD/svg11.dtd"><svg t="1610213143451" class="icon" viewBox="0 0 1024 1024" version="1.1" xmlns="http://www.w3.org/2000/svg" p-id="7133" xmlns:xlink="http://www.w3.org/1999/xlink" width="200" height="200"><defs><style type="text/css"></style></defs><path d="M514.267307 637.730133c110.523733 0 255.726933-147.3536 255.726933-333.755733 0-186.368-93.184-260.0448-255.726933-260.0448-162.542933 0-260.061867 71.509333-260.061867 260.0448 0 185.105067 149.538133 333.755733 260.061867 333.755733zM1019.781973 880.981333c-12.3904-35.1232-27.2384-69.7344-41.693866-85.111466-26.862933-28.535467-181.128533-110.3872-249.326934-145.834667a37.034667 37.034667 0 0 0-49.698133 15.274667l-77.892267 144.093866c-10.990933 20.3264-41.5744 14.7456-44.680533-8.157866-0.6656-4.9152 0.221867-9.898667 2.5088-14.2848l17.2032-32.836267a23.842133 23.842133 0 0 0-2.884267-26.453333l-32.938666-39.048534a37.0688 37.0688 0 0 0-56.695467 0.017067l-32.853333 39.0144a23.893333 23.893333 0 0 0-2.884267 26.4704l17.2032 32.8192c2.304 4.386133 3.1744 9.386667 2.5088 14.2848-3.089067 22.903467-33.6896 28.484267-44.680533 8.157867l-77.892267-144.093867a37.034667 37.034667 0 0 0-49.698133-15.274667c-68.1984 35.447467-222.464 117.282133-249.326934 145.834667-14.472533 15.377067-29.320533 49.988267-41.693866 85.111467-17.0496 48.349867 18.5856 99.072 69.853866 99.072h875.656534c51.319467 0.034133 86.971733-50.705067 69.905066-99.054934z" fill="#1296db" p-id="7134"></path></svg>