<svg t="1615039746060" class="icon" viewBox="0 0 1059 1024" version="1.1" xmlns="http://www.w3.org/2000/svg" p-id="26073" width="200" height="200"><path d="M208.25937 120.281157l49.002205-13.744521L231.86409 49.931786l67.162236 22.011153 19.753599-64.074698 41.86435 48.504215L414.725976 0l29.082609 61.020361 63.277915-18.093632L496.993905 95.912852l51.790948 18.259629L519.90144 154.044871c4.647906 14.142913 7.835041 29.04941 7.835041 44.78589 0 78.7488-63.842303 142.458306-142.491506 142.458306S242.819868 277.579562 242.819868 198.830761c0-7.967838 0.730385-15.902477 1.99196-23.471923 0.99598-6.141875 2.888341-11.984957 4.614706-17.794839L208.25937 120.281157zM1058.726495 569.634029l0 67.892621-50.960965 0 0 386.47335-33.099728 0L974.665802 637.52665 515.353132 637.52665l-0.066399 47.840228 47.209441 0 0 23.272727-40.137985 0 0 297.631954-101.955129 0 0-297.631954L352.908832 708.639606l0 297.631954L250.920503 1006.27156l0-297.631954-46.147063 0 0-23.272727 53.882506 0-0.597588-47.840228L73.934898 637.52665l0 386.47335L40.768772 1024 40.768772 637.52665 0 637.52665l0-67.892621 153.712878 0 69.021398-186.646609 86.052652-20.251589c0 0 20.351187 66.099857 73.934898 63.01232 53.68331-3.120737 73.171314-63.01232 73.171314-63.01232l101.92193 18.425626 38.013228 143.852678 1.261574 0 0 5.046297 10.457788 39.606795 81.836338 0 0-34.925691 42.295941 0 0-20.716379 55.476073 0 0 20.716379 174.163662 0c7.237453-84.392686 18.359227-285.149008-34.560498-335.645182-28.983011-27.655038-65.137077-37.382441-99.232784-26.559461-28.817015 9.063416-51.458955 31.174167-60.223577 57.634029l24.301906 2.390351-3.618726 37.614836 37.648035 3.618726 21.14797 116.562832-202.715082-19.6872 43.159123-110.28816 32.568538 3.187135 3.651926-37.681235 27.655038 2.689145c9.461808-32.867332 36.652056-60.489171 71.577746-71.478148 39.87239-12.582544 81.869537-1.593568 115.268059 30.244586 58.132019 55.476073 47.27584 260.050318 39.639995 347.331345l30.377383 0 0 34.95889L1058.726495 569.634029zM257.294774 569.634029l-0.896382-86.384645-31.074569 86.384645L257.294774 569.634029zM442.215018 564.720529 299.756711 564.720529l0 8.631825 142.458306 0L442.215018 564.720529zM521.893399 446.165737l-28.05343-13.877318-11.752561 23.870315 0 0.066399-33.896511 68.722604 34.693295 0 27.289846-54.978083L521.893399 446.165737zM532.417585 524.980936l-17.097653-54.745688 0 54.745688L532.417585 524.980936zM496.429516 440.189859l-4.349112 8.831021 17.562443 8.665024 4.349112-8.831021L496.429516 440.189859zM774.706264 391.486448c-28.651018-2.788743-41.997147-4.116716-60.190377-5.843081-1.626767 16.599663 10.524186 31.373363 27.157048 33.00013C758.305797 420.270263 773.079497 408.086111 774.706264 391.486448z" p-id="26074" fill="#e54d42"></path></svg>